<svg aria-hidden="true" style="position: absolute; width: 0; height: 0; overflow: hidden;" version="1.1" xmlns="http://www.w3.org/2000/svg" xmlns:xlink="http://www.w3.org/1999/xlink">
<defs>
<symbol id="icon-normal" viewBox="0 0 32 32">
<path stroke-linejoin="round" stroke-linecap="round" stroke-miterlimit="4" stroke-width="2.6667" d="M27.787 6.147c-0.681-0.681-1.49-1.222-2.38-1.591s-1.844-0.559-2.807-0.559c-0.963 0-1.917 0.19-2.807 0.559s-1.698 0.909-2.38 1.591l-1.413 1.413-1.413-1.413c-1.376-1.376-3.241-2.148-5.187-2.148s-3.811 0.773-5.187 2.148c-1.376 1.376-2.148 3.241-2.148 5.187s0.773 3.811 2.148 5.187l11.787 11.787 11.787-11.787c0.681-0.681 1.222-1.49 1.591-2.38s0.559-1.844 0.559-2.807c0-0.963-0.19-1.917-0.559-2.807s-0.909-1.699-1.591-2.38z"></path>
</symbol>
<symbol id="icon-x" viewBox="0 0 32 32">
<path stroke-linejoin="round" stroke-linecap="round" stroke-miterlimit="4" stroke-width="2.4" d="M24 8l-16 16"></path>
<path stroke-linejoin="round" stroke-linecap="round" stroke-miterlimit="4" stroke-width="2.4" d="M8 8l16 16"></path>
</symbol>
<symbol id="icon-close" viewBox="0 0 32 32">
<path stroke-linejoin="round" stroke-linecap="round" stroke-miterlimit="4" stroke-width="2" d="M24 8l-16 16M8 8l16 16"></path>
</symbol>
<symbol id="icon-logo" viewBox="0 0 32 32">
<path d="M31.969 15.781c-0.175-0.832-0.477-1.623-0.906-2.375-0.65-0.838-1.368-1.619-2.156-2.344 0.598-0.189 1.109-0.512 1.531-0.969 0.503-0.693 0.409-1.286-0.281-1.781-0.741-0.317-1.511-0.421-2.313-0.313-0.572 0.198-0.853 0.604-0.844 1.219-1.010-0.969-2.021-1.938-3.031-2.906-0.582-0.417-1.228-0.687-1.938-0.813-4.042-0.042-8.083-0.042-12.125 0-0.709 0.125-1.355 0.396-1.938 0.813-1.010 0.969-2.021 1.938-3.031 2.906 0.013-0.462-0.164-0.826-0.531-1.094-0.894-0.245-1.769-0.182-2.625 0.188-0.691 0.495-0.784 1.089-0.281 1.781 0.423 0.456 0.933 0.779 1.531 0.969-0.573 0.573-1.146 1.146-1.719 1.719-0.671 0.905-1.119 1.905-1.344 3 0 1.833 0 3.667 0 5.5 0.172 0.698 0.495 1.323 0.969 1.875 0.021 0.646 0.042 1.292 0.063 1.938 0.198 0.698 0.646 1.146 1.344 1.344 0.958 0.042 1.917 0.042 2.875 0 1.009-0.299 1.468-0.976 1.375-2.031 6.25 0 12.5 0 18.75 0-0.093 1.055 0.366 1.732 1.375 2.031 0.958 0.042 1.917 0.042 2.875 0 0.698-0.198 1.146-0.646 1.344-1.344 0.021-0.646 0.042-1.292 0.063-1.938 0.474-0.552 0.797-1.177 0.969-1.875 0-1.833 0-3.667 0-5.5zM10.094 7.219c3.96-0.020 7.918 0 11.875 0.063 0.462 0.137 0.878 0.356 1.25 0.656 1.148 1.168 2.314 2.314 3.5 3.438-7.167 0.042-14.333 0.042-21.5 0 1.271-1.229 2.542-2.458 3.813-3.688 0.346-0.194 0.7-0.35 1.063-0.469zM2.656 14.094c0.318-0.016 0.63 0.016 0.938 0.094 1.211 0.465 2.284 1.142 3.219 2.031 0.247 0.244 0.351 0.535 0.313 0.875-0.121 0.163-0.277 0.277-0.469 0.344-0.307 0.092-0.619 0.155-0.938 0.188-1 0.042-2 0.042-3 0-0.864-0.26-1.343-0.843-1.438-1.75 0.102-0.882 0.56-1.475 1.375-1.781zM28.594 14.094c1.215-0.017 1.903 0.576 2.063 1.781-0.095 0.907-0.574 1.49-1.438 1.75-1 0.042-2 0.042-3 0-0.318-0.033-0.631-0.095-0.938-0.188-0.518-0.181-0.633-0.504-0.344-0.969 1.019-1.098 2.238-1.89 3.656-2.375zM8.656 16.406c4.875 0 9.75 0 14.625 0-0.005 0.878-0.265 1.67-0.781 2.375-0.259 0.301-0.582 0.499-0.969 0.594-3.708 0.042-7.417 0.042-11.125 0-0.731-0.241-1.221-0.73-1.469-1.469-0.166-0.486-0.26-0.986-0.281-1.5zM2.406 19.969c1.146-0.010 2.292 0 3.438 0.031 0.706 0.852 1.435 1.685 2.188 2.5-1.396 0.042-2.792 0.042-4.188 0-0.749-0.181-1.301-0.608-1.656-1.281-0.078-0.445-0.005-0.861 0.219-1.25zM26.094 19.969c1.147-0.021 2.292 0 3.438 0.063 0.437 0.769 0.312 1.425-0.375 1.969-0.336 0.202-0.69 0.369-1.063 0.5-1.396 0.042-2.792 0.042-4.188 0 0.766-0.817 1.495-1.661 2.188-2.531zM9.281 20.719c4.458 0 8.917 0 13.375 0-0.045 0.869-0.483 1.442-1.313 1.719-1.789 0.072-3.581 0.103-5.375 0.094-1.794 0.009-3.586-0.022-5.375-0.094-0.83-0.277-1.267-0.85-1.313-1.719z"></path>
</symbol>
<symbol id="icon-angles-up-solid" viewBox="0 0 28 32">
<path d="M15.412 2.587c-0.781-0.781-2.050-0.781-2.831 0l-10 10c-0.781 0.781-0.781 2.050 0 2.831s2.050 0.781 2.831 0l8.587-8.588 8.587 8.581c0.781 0.781 2.050 0.781 2.831 0s0.781-2.050 0-2.831l-10-10zM25.413 24.587l-10-10c-0.781-0.781-2.050-0.781-2.831 0l-10 10c-0.781 0.781-0.781 2.050 0 2.831s2.050 0.781 2.831 0l8.587-8.588 8.587 8.581c0.781 0.781 2.050 0.781 2.831 0s0.781-2.050 0-2.831z"></path>
</symbol>
<symbol id="icon-burger-menu" viewBox="0 0 32 32">
<path stroke-linejoin="round" stroke-linecap="round" stroke-miterlimit="4" stroke-width="2" d="M4 16h16M4 8h24M4 24h24"></path>
</symbol>
</defs>
</svg>
